<?xml version="1.0" encoding="UTF-8"?>
<svg xmlns="http://www.w3.org/2000/svg" width="100" height="100" viewBox="0 0 100 100" role="img" aria-labelledby="title">
  <title id="title">ロードマップ用の数字5</title>
  <path fill="#123D2A" d="M49.495 94.096Q40.919 94.096 34.37 90.894Q27.821 87.692 23.97 82.182Q20.118 76.671 19.555 69.782L19.497 69.006H33.506L33.584 69.433Q34.186 72.829 36.33 75.613Q38.474 78.398 41.889 80.028Q45.304 81.658 49.573 81.658Q54.444 81.658 58.159 79.523Q61.875 77.389 63.971 73.615Q66.067 69.841 66.067 64.97V64.854Q66.067 60.003 63.952 56.277Q61.837 52.552 58.15 50.446Q54.463 48.341 49.67 48.341Q46.158 48.341 43.199 49.379Q40.24 50.417 37.911 52.455Q36.747 53.444 35.757 54.638Q34.768 55.831 34.011 57.247H20.952L25.008 8H75.613V20.457H36.883L34.554 45.877H35.563Q37.31 43.024 39.987 41.026Q42.665 39.027 46.109 37.94Q49.554 36.854 53.473 36.854Q61.351 36.854 67.444 40.444Q73.537 44.033 77.02 50.272Q80.503 56.51 80.503 64.582V64.699Q80.503 73.392 76.554 80.028Q72.606 86.664 65.62 90.38Q58.635 94.096 49.495 94.096Z"/>
</svg>
