<?xml version="1.0" encoding="UTF-8"?>
<svg xmlns="http://www.w3.org/2000/svg" width="100" height="100" viewBox="0 0 100 100" role="img" aria-labelledby="title">
  <title id="title">ロードマップ用の数字6</title>
  <path fill="#123D2A" d="M51.203 94.115Q44.412 94.115 38.338 91.622Q32.265 89.128 27.579 83.918Q22.893 78.708 20.215 70.559Q17.537 62.409 17.537 51.058V50.941Q17.537 36.796 21.631 26.715Q25.726 16.635 33.332 11.279Q40.938 5.924 51.494 5.924Q59.256 5.924 65.494 8.757Q71.732 11.59 75.827 16.548Q79.921 21.505 81.24 27.986L81.376 28.607H66.397L66.183 28.044Q65.096 25.095 63.04 22.941Q60.983 20.787 58.082 19.584Q55.181 18.381 51.494 18.381Q44.897 18.381 40.705 22.281Q36.514 26.182 34.448 32.74Q32.381 39.299 32.032 47.332Q31.974 48.147 31.974 48.981Q31.974 49.816 31.974 50.689L34.574 64.718Q34.574 69.491 36.776 73.353Q38.978 77.214 42.733 79.475Q46.488 81.735 51.087 81.735Q55.705 81.735 59.45 79.514Q63.195 77.292 65.407 73.508Q67.619 69.724 67.619 65.067V64.951Q67.619 60.139 65.504 56.413Q63.389 52.687 59.692 50.553Q55.996 48.418 51.222 48.418Q46.546 48.418 42.772 50.504Q38.998 52.59 36.786 56.258Q34.574 59.925 34.574 64.64V64.718H31.1V49.253H33.138Q34.69 45.935 37.62 43.083Q40.55 40.23 44.916 38.484Q49.282 36.737 55.026 36.737Q63.136 36.737 69.317 40.337Q75.497 43.936 78.98 50.194Q82.463 56.452 82.463 64.466V64.582Q82.463 73.101 78.456 79.766Q74.449 86.431 67.405 90.273Q60.362 94.115 51.203 94.115Z"/>
</svg>
