<?xml version="1.0" encoding="UTF-8"?>
<svg xmlns="http://www.w3.org/2000/svg" width="100" height="100" viewBox="0 0 100 100" role="img" aria-labelledby="title">
  <title id="title">ロードマップ用の数字8</title>
  <path fill="#123D2A" d="M50 93.708Q40.298 93.708 32.886 90.603Q25.473 87.498 21.282 81.988Q17.091 76.477 17.091 69.278V69.161Q17.091 63.767 19.536 59.353Q21.981 54.938 26.288 51.94Q30.596 48.943 36.184 47.798V47.487Q28.986 45.547 24.571 40.579Q20.157 35.612 20.157 28.84V28.724Q20.157 22.243 23.979 17.188Q27.802 12.133 34.545 9.213Q41.288 6.293 50 6.293Q58.751 6.293 65.484 9.213Q72.217 12.133 76.03 17.188Q79.843 22.243 79.843 28.724V28.84Q79.843 35.612 75.439 40.579Q71.034 45.547 63.816 47.487V47.798Q69.443 48.923 73.741 51.931Q78.039 54.938 80.474 59.353Q82.909 63.767 82.909 69.161V69.278Q82.909 76.477 78.737 81.988Q74.565 87.498 67.134 90.603Q59.702 93.708 50 93.708ZM50 82.143Q55.026 82.143 58.868 80.358Q62.71 78.573 64.912 75.439Q67.114 72.305 67.114 68.288V68.172Q67.114 64.116 64.941 60.973Q62.768 57.829 58.907 56.025Q55.045 54.22 50 54.22Q44.955 54.22 41.093 56.025Q37.232 57.829 35.059 60.973Q32.886 64.116 32.886 68.172V68.288Q32.886 72.305 35.088 75.439Q37.29 78.573 41.152 80.358Q45.013 82.143 50 82.143ZM50 42.656Q54.385 42.656 57.713 41.074Q61.041 39.493 62.913 36.689Q64.786 33.885 64.786 30.237V30.121Q64.786 26.473 62.904 23.688Q61.022 20.904 57.694 19.332Q54.366 17.76 50 17.76Q45.653 17.76 42.316 19.332Q38.978 20.904 37.096 23.688Q35.214 26.473 35.214 30.121V30.237Q35.214 33.885 37.087 36.689Q38.959 39.493 42.297 41.074Q45.634 42.656 50 42.656Z"/>
</svg>
