<?xml version="1.0" encoding="UTF-8"?>
<svg xmlns="http://www.w3.org/2000/svg" width="100" height="100" viewBox="0 0 100 100" role="img" aria-labelledby="title">
  <title id="title">ロードマップ用の数字9</title>
  <path fill="#123D2A" d="M48.797 5.885Q55.588 5.885 61.662 8.378Q67.735 10.872 72.421 16.082Q77.107 21.292 79.785 29.441Q82.463 37.591 82.463 48.942V49.059Q82.463 63.204 78.369 73.275Q74.274 83.346 66.678 88.711Q59.081 94.076 48.506 94.076Q40.744 94.076 34.516 91.243Q28.287 88.41 24.202 83.423Q20.118 78.437 18.76 72.014L18.624 71.393H33.603L33.817 71.956Q34.923 74.847 36.97 77.03Q39.017 79.213 41.928 80.416Q44.838 81.619 48.506 81.619Q55.103 81.619 59.295 77.719Q63.486 73.819 65.582 67.241Q67.677 60.663 67.968 52.668Q68.026 51.814 68.026 50.97Q68.026 50.126 68.026 49.311L65.426 35.282Q65.426 30.489 63.224 26.638Q61.022 22.786 57.296 20.525Q53.57 18.265 48.913 18.265Q44.353 18.265 40.599 20.477Q36.844 22.689 34.613 26.463Q32.381 30.237 32.381 34.933V35.049Q32.381 39.842 34.515 43.577Q36.65 47.313 40.356 49.447Q44.062 51.582 48.778 51.582Q53.512 51.582 57.257 49.496Q61.002 47.41 63.214 43.742Q65.426 40.075 65.426 35.36V35.282H68.9V50.747H66.862Q65.368 54.046 62.409 56.908Q59.45 59.77 55.103 61.516Q50.757 63.263 44.974 63.263Q36.922 63.263 30.732 59.663Q24.542 56.064 21.04 49.777Q17.537 43.49 17.537 35.534V35.418Q17.537 26.9 21.544 20.215Q25.551 13.53 32.624 9.708Q39.697 5.885 48.797 5.885Z"/>
</svg>
