<?xml version="1.0" encoding="UTF-8"?>
<svg xmlns="http://www.w3.org/2000/svg" width="100" height="100" viewBox="0 0 100 100" role="img" aria-labelledby="title">
  <title id="title">ロードマップ用の数字0</title>
  <path fill="#123D2A" d="M49.981 94.096Q39.949 94.096 32.769 88.73Q25.59 83.365 21.729 73.479Q17.867 63.593 17.867 50.029V49.913Q17.867 36.349 21.729 26.492Q25.59 16.635 32.769 11.27Q39.949 5.904 49.981 5.904Q60.012 5.904 67.202 11.27Q74.391 16.635 78.262 26.492Q82.133 36.349 82.133 49.913V50.029Q82.133 63.593 78.262 73.479Q74.391 83.365 67.202 88.73Q60.012 94.096 49.981 94.096ZM49.981 81.794Q55.317 81.794 59.062 77.971Q62.807 74.148 64.796 67.037Q66.785 59.925 66.785 50.029V49.913Q66.785 39.997 64.796 32.915Q62.807 25.832 59.062 22.039Q55.317 18.245 49.981 18.245Q44.683 18.245 40.938 22.039Q37.193 25.832 35.214 32.915Q33.235 39.997 33.235 49.913V50.029Q33.235 59.925 35.214 67.037Q37.193 74.148 40.938 77.971Q44.683 81.794 49.981 81.794Z"/>
</svg>
