<?xml version="1.0" encoding="UTF-8"?>
<svg xmlns="http://www.w3.org/2000/svg" width="100" height="100" viewBox="0 0 100 100" role="img" aria-labelledby="title">
  <title id="title">ロードマップ用の数字3</title>
  <path fill="#123D2A" d="M50.107 93.708Q40.89 93.708 33.982 90.603Q27.074 87.498 23.058 81.988Q19.041 76.477 18.44 69.259L18.381 68.541H32.934L33.012 69.162Q33.4 72.693 35.592 75.429Q37.785 78.165 41.491 79.717Q45.197 81.27 50.087 81.27Q54.938 81.27 58.548 79.591Q62.157 77.913 64.155 74.954Q66.154 71.995 66.154 68.153V68.036Q66.154 61.439 61.594 57.917Q57.034 54.395 49.001 54.395H39.085V43.083H48.69Q53.308 43.083 56.762 41.491Q60.216 39.9 62.128 37.077Q64.039 34.254 64.039 30.606V30.489Q64.039 26.667 62.39 23.95Q60.74 21.233 57.587 19.788Q54.434 18.342 49.971 18.342Q45.586 18.342 42.2 19.827Q38.814 21.311 36.795 24.057Q34.777 26.802 34.37 30.547L34.312 31.11H20.186L20.244 30.431Q20.884 23.116 24.726 17.702Q28.568 12.288 35.02 9.29Q41.472 6.293 49.971 6.293Q58.683 6.293 65.125 9.106Q71.567 11.92 75.099 16.897Q78.63 21.874 78.63 28.491V28.607Q78.63 33.827 76.321 37.814Q74.012 41.802 70.025 44.402Q66.037 47.002 61.012 48.05V48.36Q70.326 49.195 75.972 54.473Q81.619 59.751 81.619 68.444V68.56Q81.619 75.953 77.631 81.638Q73.644 87.324 66.561 90.516Q59.479 93.708 50.107 93.708Z"/>
</svg>
