<?xml version="1.0" encoding="UTF-8"?>
<svg xmlns="http://www.w3.org/2000/svg" width="100" height="100" viewBox="0 0 100 100" role="img" aria-labelledby="title">
  <title id="title">ロードマップ用の数字2</title>
  <path fill="#123D2A" d="M21.185 92V81.716L48.7 53.677Q54.424 47.914 57.607 44.179Q60.789 40.444 62.06 37.572Q63.331 34.7 63.331 31.518V31.343Q63.331 27.482 61.652 24.493Q59.974 21.505 56.859 19.798Q53.745 18.09 49.418 18.09Q45.013 18.09 41.666 19.914Q38.319 21.738 36.456 24.978Q34.593 28.219 34.593 32.527L34.554 32.779L20.39 32.74L20.312 32.546Q20.351 24.687 24.144 18.682Q27.938 12.676 34.661 9.29Q41.385 5.904 50.175 5.904Q58.402 5.904 64.776 8.98Q71.15 12.056 74.779 17.479Q78.407 22.902 78.407 30.004V30.179Q78.407 34.933 76.612 39.454Q74.818 43.975 70.471 49.311Q66.125 54.647 58.46 62.001L37.717 82.085L41.753 75.352V82.085L37.756 79.426H79.688V92Z"/>
</svg>
